<svg width="528" height="173" viewBox="0 0 528 173" fill="none" xmlns="http://www.w3.org/2000/svg">
<path d="M50.8389 22.9651C51.5586 21.7472 52.868 21 54.2826 21L97.456 21C100.561 21 102.482 24.3831 100.891 27.0494L53.1638 107.049C52.4421 108.259 51.1374 109 49.7287 109L7.0098 109C3.9126 109 1.99046 105.632 3.5661 102.965L50.8389 22.9651Z" fill="#333333"/>
<path d="M131.342 105.968C134.471 105.968 136.388 109.399 134.748 112.064L111.671 149.564C110.943 150.747 109.654 151.468 108.265 151.468L29.5042 151.468C26.3466 151.468 24.434 147.981 26.1311 145.318L50.0322 107.818C50.7667 106.665 52.0387 105.968 53.4053 105.968L131.342 105.968Z" fill="#333333"/>
<path d="M164.91 121.43C158.15 121.43 152.95 119.913 149.31 116.88C145.67 113.76 143.85 109.773 143.85 104.92C143.85 101.713 144.587 98.81 146.06 96.21C147.62 93.5233 149.787 91.27 152.56 89.45C155.333 87.63 158.627 86.2433 162.44 85.29C166.253 84.25 170.457 83.73 175.05 83.73C176.263 83.73 177.52 83.73 178.82 83.73C180.207 83.73 181.637 83.8167 183.11 83.99C184.67 84.0767 186.23 84.2067 187.79 84.38L188.18 92.57C186.793 92.3967 185.363 92.2667 183.89 92.18C182.417 92.0067 180.943 91.92 179.47 91.92C178.083 91.8333 176.74 91.79 175.44 91.79C172.233 91.79 169.33 92.05 166.73 92.57C164.217 93.09 162.093 93.87 160.36 94.91C158.627 95.8633 157.283 97.12 156.33 98.68C155.377 100.153 154.9 101.887 154.9 103.88C154.9 105.613 155.203 107.043 155.81 108.17C156.417 109.297 157.24 110.207 158.28 110.9C159.32 111.593 160.533 112.113 161.92 112.46C163.307 112.72 164.823 112.85 166.47 112.85C169.59 112.85 172.32 112.373 174.66 111.42C177.087 110.38 179.123 108.863 180.77 106.87C182.503 104.877 183.803 102.45 184.67 99.59C185.537 96.6433 185.97 93.22 185.97 89.32C185.97 83.7733 185.32 79.44 184.02 76.32C182.807 73.2 180.943 71.0333 178.43 69.82C175.917 68.52 172.753 67.87 168.94 67.87C166.08 67.87 163.307 68.39 160.62 69.43C158.02 70.3833 155.55 72.03 153.21 74.37L147.49 67.48C150.523 64.5333 153.947 62.3667 157.76 60.98C161.573 59.5933 165.517 58.9 169.59 58.9C173.49 58.9 177.043 59.3767 180.25 60.33C183.457 61.1967 186.23 62.7133 188.57 64.88C190.997 67.0467 192.86 69.95 194.16 73.59C195.46 77.23 196.11 81.8233 196.11 87.37V120H184.28V111.81C183.153 113.717 181.81 115.32 180.25 116.62C178.777 117.833 177.173 118.787 175.44 119.48C173.793 120.173 172.06 120.65 170.24 120.91C168.42 121.257 166.643 121.43 164.91 121.43ZM211.58 120V60.2H222.63V70.08C224.103 67.8267 225.837 65.8767 227.83 64.23C229.823 62.4967 231.99 61.1533 234.33 60.2C236.757 59.2467 239.27 58.77 241.87 58.77C245.25 58.77 248.283 59.6367 250.97 61.37C253.657 63.0167 255.823 65.66 257.47 69.3C259.117 72.94 259.94 77.7933 259.94 83.86V120H249.02V84.12C249.02 80.22 248.587 77.1 247.72 74.76C246.853 72.42 245.64 70.73 244.08 69.69C242.52 68.5633 240.743 68 238.75 68C236.93 68 235.067 68.4333 233.16 69.3C231.253 70.08 229.477 71.2067 227.83 72.68C226.27 74.1533 225.013 75.9733 224.06 78.14C223.107 80.22 222.63 82.56 222.63 85.16V120H211.58ZM299.72 142.62C295.56 142.62 291.79 142.273 288.41 141.58C285.03 140.887 282.17 139.89 279.83 138.59C277.49 137.29 275.67 135.687 274.37 133.78C273.157 131.873 272.55 129.663 272.55 127.15C272.55 124.81 273.07 122.687 274.11 120.78C275.15 118.96 276.493 117.4 278.14 116.1C279.873 114.8 281.78 113.803 283.86 113.11L288.67 115.58C287.197 116.533 285.94 117.487 284.9 118.44C283.947 119.307 283.21 120.303 282.69 121.43C282.257 122.643 282.04 124.073 282.04 125.72C282.04 127.02 282.473 128.19 283.34 129.23C284.207 130.357 285.42 131.267 286.98 131.96C288.54 132.653 290.447 133.173 292.7 133.52C294.953 133.953 297.467 134.17 300.24 134.17C303.967 134.17 307.043 133.78 309.47 133C311.897 132.307 313.717 131.267 314.93 129.88C316.143 128.58 316.75 127.107 316.75 125.46C316.75 123.727 316.403 122.297 315.71 121.17C315.017 120.13 313.63 119.35 311.55 118.83C309.47 118.31 306.437 118.05 302.45 118.05C299.503 118.05 296.73 117.92 294.13 117.66C291.53 117.4 289.147 116.967 286.98 116.36C284.9 115.753 283.123 115.017 281.65 114.15C280.177 113.197 279.007 112.027 278.14 110.64C277.36 109.253 276.97 107.65 276.97 105.83C276.97 103.403 277.663 101.15 279.05 99.07C280.523 96.99 282.387 94.9967 284.64 93.09L289.84 96.73C288.973 97.6833 288.237 98.5067 287.63 99.2C287.11 99.8067 286.72 100.413 286.46 101.02C286.2 101.627 286.07 102.32 286.07 103.1C286.07 104.4 286.633 105.44 287.76 106.22C288.973 107 290.967 107.607 293.74 108.04C296.6 108.387 300.37 108.56 305.05 108.56C309.383 108.56 312.937 108.95 315.71 109.73C318.483 110.51 320.65 111.637 322.21 113.11C323.77 114.497 324.853 116.143 325.46 118.05C326.153 119.87 326.5 121.863 326.5 124.03C326.5 126.457 325.98 128.753 324.94 130.92C323.987 133.173 322.427 135.167 320.26 136.9C318.18 138.633 315.45 140.02 312.07 141.06C308.69 142.1 304.573 142.62 299.72 142.62ZM297.51 99.72C293.263 99.72 289.537 98.81 286.33 96.99C283.123 95.17 280.61 92.7 278.79 89.58C277.057 86.3733 276.19 82.82 276.19 78.92C276.19 75.1067 277.057 71.64 278.79 68.52C280.61 65.4 283.123 62.8867 286.33 60.98C289.537 59.0733 293.263 58.12 297.51 58.12C301.843 58.12 305.57 59.0733 308.69 60.98C311.897 62.8867 314.367 65.4 316.1 68.52C317.92 71.64 318.83 75.1067 318.83 78.92C318.83 82.82 317.92 86.3733 316.1 89.58C314.367 92.7 311.897 95.17 308.69 96.99C305.57 98.81 301.843 99.72 297.51 99.72ZM297.51 91.01C299.85 91.01 301.887 90.49 303.62 89.45C305.44 88.3233 306.87 86.85 307.91 85.03C309.037 83.21 309.6 81.1733 309.6 78.92C309.6 76.6667 309.037 74.6733 307.91 72.94C306.87 71.12 305.44 69.69 303.62 68.65C301.887 67.5233 299.85 66.96 297.51 66.96C295.257 66.96 293.22 67.5233 291.4 68.65C289.58 69.69 288.15 71.12 287.11 72.94C286.07 74.76 285.55 76.7533 285.55 78.92C285.55 81.0867 286.07 83.1233 287.11 85.03C288.15 86.85 289.58 88.3233 291.4 89.45C293.22 90.49 295.257 91.01 297.51 91.01ZM315.32 70.34L311.03 65.14C313.543 62.8 316.23 61.0667 319.09 59.94C321.95 58.8133 325.2 58.38 328.84 58.64L330.14 67.22C327.367 66.8733 324.723 66.9167 322.21 67.35C319.697 67.7833 317.4 68.78 315.32 70.34ZM345.35 120V111.16H360.43V69.17H346.13V60.2H371.61V111.16H385.39V120H345.35ZM365.37 48.63C363.29 48.63 361.513 47.8933 360.04 46.42C358.567 44.9467 357.83 43.2133 357.83 41.22C357.83 39.0533 358.523 37.2767 359.91 35.89C361.383 34.5033 363.203 33.81 365.37 33.81C367.363 33.81 369.097 34.5467 370.57 36.02C372.13 37.4933 372.91 39.2267 372.91 41.22C372.91 43.2133 372.13 44.9467 370.57 46.42C369.097 47.8933 367.363 48.63 365.37 48.63ZM418.02 69.04H405.15V60.2H418.02V55.78C418.02 50.4067 419.017 46.03 421.01 42.65C423.09 39.1833 425.863 36.6267 429.33 34.98C432.797 33.3333 436.653 32.51 440.9 32.51C444.8 32.51 448.397 33.2033 451.69 34.59C455.07 35.89 457.887 37.9267 460.14 40.7L454.94 48.63L454.29 49.67L453.38 49.15C453.207 48.4567 452.99 47.7633 452.73 47.07C452.47 46.3767 451.863 45.5533 450.91 44.6C449.437 43.3867 448.007 42.5633 446.62 42.13C445.233 41.61 443.5 41.35 441.42 41.35C438.993 41.35 436.827 41.8267 434.92 42.78C433.013 43.7333 431.54 45.25 430.5 47.33C429.46 49.41 428.94 52.1833 428.94 55.65V60.2H447.92V69.04H428.94V120H418.02V69.04ZM479.51 142.75C476.65 142.75 474.05 142.273 471.71 141.32C469.457 140.453 467.42 139.153 465.6 137.42L469.89 129.88L470.67 128.71L471.58 129.23C471.753 129.923 472.057 130.53 472.49 131.05C472.923 131.57 473.703 132.22 474.83 133C475.61 133.26 476.39 133.433 477.17 133.52C478.037 133.693 478.903 133.78 479.77 133.78C481.937 133.78 483.757 133.26 485.23 132.22C486.703 131.18 488.003 129.533 489.13 127.28C490.343 125.027 491.513 122.21 492.64 118.83L504.6 83.21C505.9 79.31 507.07 75.4967 508.11 71.77C509.237 67.9567 509.973 64.1 510.32 60.2H521.11C520.59 64.1867 519.637 68.26 518.25 72.42C516.95 76.58 515.563 80.6533 514.09 84.64L499.27 126.24C497.017 132.307 494.243 136.553 490.95 138.98C487.657 141.493 483.843 142.75 479.51 142.75ZM468.33 60.2H479.77L498.49 108.69L493.16 121.56L468.33 60.2Z" fill="#333333"/>
<path d="M46.9 99.0129C48.0131 97.1735 50.6749 97.1545 51.8142 98.9778L58.1 109.037C59.6479 111.514 57.0924 114.514 54.4006 113.38C53.8154 113.133 53.3239 112.706 52.9972 112.162L46.8943 101.991C46.3442 101.074 46.3464 99.9277 46.9 99.0129Z" fill="#333333"/>
</svg>
